<svg width="72" height="64" viewBox="0 0 72 64" fill="none" xmlns="http://www.w3.org/2000/svg">
<path d="M26.3765 37.6L15.7622 44.2609C10.9429 47.2852 10.381 54.0911 14.6389 57.8649C17.5893 60.4798 21.9475 60.7313 25.1791 58.4731L40.2168 47.9646C53.4489 38.7179 52.7423 18.9009 38.8852 10.6201L32.628 6.88082C30.2052 5.43302 27.2222 5.2807 24.6646 6.47418C18.0577 9.55722 18.1342 18.9786 24.7903 21.9539L25.2949 22.1794C31.6909 25.0385 32.3108 33.876 26.3765 37.6Z" fill="#1BF2FF"/>
<path d="M26.3765 37.6L15.7622 44.2609C10.9429 47.2852 10.381 54.0911 14.6389 57.8649C17.5893 60.4798 21.9475 60.7313 25.1791 58.4731L40.2168 47.9646C53.4489 38.7179 52.7423 18.9009 38.8852 10.6201L32.628 6.88082C30.2052 5.43302 27.2222 5.2807 24.6646 6.47418C18.0577 9.55722 18.1342 18.9786 24.7903 21.9539L25.2949 22.1794C31.6909 25.0385 32.3108 33.876 26.3765 37.6Z" fill="url(#paint0_linear_7_9)" fill-opacity="0.8"/>
<path d="M26.3765 37.6L15.7622 44.2609C10.9429 47.2852 10.381 54.0911 14.6389 57.8649C17.5893 60.4798 21.9475 60.7313 25.1791 58.4731L40.2168 47.9646C53.4489 38.7179 52.7423 18.9009 38.8852 10.6201L32.628 6.88082C30.2052 5.43302 27.2222 5.2807 24.6646 6.47418C18.0577 9.55722 18.1342 18.9786 24.7903 21.9539L25.2949 22.1794C31.6909 25.0385 32.3108 33.876 26.3765 37.6Z" fill="url(#paint1_linear_7_9)" fill-opacity="0.8"/>
<path d="M26.3765 37.6L15.7622 44.2609C10.9429 47.2852 10.381 54.0911 14.6389 57.8649C17.5893 60.4798 21.9475 60.7313 25.1791 58.4731L40.2168 47.9646C53.4489 38.7179 52.7423 18.9009 38.8852 10.6201L32.628 6.88082C30.2052 5.43302 27.2222 5.2807 24.6646 6.47418C18.0577 9.55722 18.1342 18.9786 24.7903 21.9539L25.2949 22.1794C31.6909 25.0385 32.3108 33.876 26.3765 37.6Z" fill="url(#paint2_linear_7_9)"/>
<path d="M30.5 32C29.8044 33.1452 31.5 30.5 29.5 26C26.5 22 26.4206 23.4471 23.5 21.5C19 18.5 19.0664 13.3602 20.5 11C21.9337 8.63989 26.0615 10.7433 29.6017 12.8937C31.8338 14.2495 39.5283 21.8479 40 27.5C40.2765 30.8123 31.0297 31.128 30.5 32Z" fill="#0646A6"/>
<path d="M30.5 32C29.8044 33.1452 31.5 30.5 29.5 26C26.5 22 26.4206 23.4471 23.5 21.5C19 18.5 19.0664 13.3602 20.5 11C21.9337 8.63989 26.0615 10.7433 29.6017 12.8937C31.8338 14.2495 39.5283 21.8479 40 27.5C40.2765 30.8123 31.0297 31.128 30.5 32Z" fill="url(#paint3_linear_7_9)"/>
<g filter="url(#filter0_f_7_9)">
<ellipse cx="36.3888" cy="31.6372" rx="4.19809" ry="9.78475" transform="rotate(29.4305 36.3888 31.6372)" fill="#1BF2FF"/>
</g>
<g filter="url(#filter1_f_7_9)">
<ellipse cx="33.8616" cy="31.2489" rx="1.73257" ry="2.75282" transform="rotate(29.4305 33.8616 31.2489)" fill="#1BF2FF"/>
</g>
<g filter="url(#filter2_f_7_9)">
<ellipse cx="22.849" cy="11.217" rx="1.00759" ry="1.97706" transform="rotate(29.4305 22.849 11.217)" fill="#1BF2FF"/>
</g>
<g filter="url(#filter3_f_7_9)">
<ellipse cx="24.653" cy="43.8104" rx="3.60709" ry="9.78475" transform="rotate(51.8503 24.653 43.8104)" fill="#1BF2FF"/>
</g>
<g filter="url(#filter4_f_7_9)">
<ellipse cx="26.1935" cy="10.9626" rx="3.60709" ry="3.80343" transform="rotate(128.478 26.1935 10.9626)" fill="#1BF2FF"/>
</g>
<defs>
<filter id="filter0_f_7_9" x="26.3482" y="18.867" width="20.0812" height="25.5403" filterUnits="userSpaceOnUse" color-interpolation-filters="sRGB">
<feFlood flood-opacity="0" result="BackgroundImageFix"/>
<feBlend mode="normal" in="SourceGraphic" in2="BackgroundImageFix" result="shape"/>
<feGaussianBlur stdDeviation="2" result="effect1_foregroundBlur_7_9"/>
</filter>
<filter id="filter1_f_7_9" x="29.8351" y="26.704" width="8.05304" height="9.08984" filterUnits="userSpaceOnUse" color-interpolation-filters="sRGB">
<feFlood flood-opacity="0" result="BackgroundImageFix"/>
<feBlend mode="normal" in="SourceGraphic" in2="BackgroundImageFix" result="shape"/>
<feGaussianBlur stdDeviation="1" result="effect1_foregroundBlur_7_9"/>
</filter>
<filter id="filter2_f_7_9" x="19.5399" y="7.42488" width="6.61832" height="7.5843" filterUnits="userSpaceOnUse" color-interpolation-filters="sRGB">
<feFlood flood-opacity="0" result="BackgroundImageFix"/>
<feBlend mode="normal" in="SourceGraphic" in2="BackgroundImageFix" result="shape"/>
<feGaussianBlur stdDeviation="1" result="effect1_foregroundBlur_7_9"/>
</filter>
<filter id="filter3_f_7_9" x="12.6401" y="33.132" width="24.0258" height="21.3567" filterUnits="userSpaceOnUse" color-interpolation-filters="sRGB">
<feFlood flood-opacity="0" result="BackgroundImageFix"/>
<feBlend mode="normal" in="SourceGraphic" in2="BackgroundImageFix" result="shape"/>
<feGaussianBlur stdDeviation="2" result="effect1_foregroundBlur_7_9"/>
</filter>
<filter id="filter4_f_7_9" x="18.4646" y="3.27818" width="15.4577" height="15.3689" filterUnits="userSpaceOnUse" color-interpolation-filters="sRGB">
<feFlood flood-opacity="0" result="BackgroundImageFix"/>
<feBlend mode="normal" in="SourceGraphic" in2="BackgroundImageFix" result="shape"/>
<feGaussianBlur stdDeviation="2" result="effect1_foregroundBlur_7_9"/>
</filter>
<linearGradient id="paint0_linear_7_9" x1="55.5781" y1="38.8868" x2="41.2114" y2="15.8866" gradientUnits="userSpaceOnUse">
<stop stop-color="#004EC4"/>
<stop offset="1" stop-color="#65D1FF" stop-opacity="0"/>
</linearGradient>
<linearGradient id="paint1_linear_7_9" x1="69.8497" y1="19.3299" x2="60.745" y2="7.7652" gradientUnits="userSpaceOnUse">
<stop stop-color="#004EC4"/>
<stop offset="1" stop-color="#65D1FF" stop-opacity="0"/>
</linearGradient>
<linearGradient id="paint2_linear_7_9" x1="16.716" y1="57.1802" x2="15.018" y2="38.7011" gradientUnits="userSpaceOnUse">
<stop stop-color="#004EC4"/>
<stop offset="1" stop-color="#65D1FF" stop-opacity="0"/>
</linearGradient>
<linearGradient id="paint3_linear_7_9" x1="18.5" y1="20" x2="29" y2="11.5" gradientUnits="userSpaceOnUse">
<stop stop-color="#004EC3"/>
<stop offset="1" stop-color="#00C2CE"/>
</linearGradient>
</defs>
</svg>
