<svg width="90" height="32" viewBox="0 0 90 32" fill="none" xmlns="http://www.w3.org/2000/svg">
<path d="M6.67578 12.1875C6.71484 12.1875 1.71484 9.80469 3.14062 7.53906C3.64844 6.58203 4.52734 6.01562 5.77734 5.83984C7.02734 5.66406 9.29297 5.72266 12.5742 6.05469C12.5742 7.12891 12.4766 9.27734 12.2617 12.5391C9.9375 12.7539 8.16016 14.1602 6.92969 16.7383C8.39453 15.8398 10.0938 15.4883 11.9883 15.6641C11.6953 18.457 11.2266 20.957 10.543 23.1641C9.85938 25.3711 8.90234 26.6211 7.65234 26.875C7.06641 26.8945 6.73438 26.6406 6.63672 26.1133C6.53906 25.5859 6.53906 25.0195 6.61719 24.4336C6.69531 23.5547 6.69531 22.9883 6.12891 23.457C4.27344 25.1953 3.66797 26.7188 4.3125 28.0273C4.97656 29.3359 6.16797 30.0781 7.88672 30.2148C9.85938 30.2148 11.5195 29.2773 12.8281 27.4023C14.1367 25.5078 15.0938 23.2031 15.6602 20.4688L16.5977 16.1719C18.375 16.4258 20.0742 16.3672 21.6758 16.0352C23.2773 15.6836 24.6445 14.6484 25.7578 12.9297C23.5117 13.2422 21.1484 13.1836 18.6289 12.7734C18.1992 12.7148 17.7695 12.6758 17.3398 12.6367L17.418 12.2852C17.7305 10.7422 17.9453 9.43359 18.0625 8.35938C18.1406 7.75391 18.2188 7.1875 18.3164 6.62109C20.9531 6.89453 24 7.14844 27.457 7.40234C30.9141 7.63672 33.4141 7.67578 34.957 7.53906C40.0352 6.50391 41.207 4.02344 38.4727 0.0976562C38.4922 0.0976562 38.5703 3.53516 34.7422 3.86719C31.8711 3.94531 28.043 3.49609 23.2969 2.53906C19.0977 1.73828 15.0547 1.19141 11.168 0.917969C7.30078 0.644531 4.44922 1.28906 2.59375 2.83203C1.67578 3.75 1.14844 4.92188 0.992188 6.30859C0.835938 7.69531 1.1875 8.96484 2.06641 10.1172C2.94531 11.2695 4.48828 11.9727 6.67578 12.1875ZM39.918 23.2031C34.7812 27.3438 33.2188 27.3242 31.6172 27.1289C29.293 26.8359 29.6445 23.9062 29.625 23.9062C31.5195 24.1602 33.1992 23.8672 34.6641 23.0469C36.1289 22.207 37.2422 21.2109 37.9648 20.0586C39.4688 17.5391 39.7227 15.2734 38.7656 13.2422C37.8086 11.1914 35.582 10.3516 32.125 10.6836C29.5664 11.2109 27.5156 12.8711 25.9727 15.625C24.4297 18.3789 23.7852 21.1914 24.0391 24.0625C24.3125 26.9336 25.8945 28.7891 28.7656 29.6484C37.5938 31.7969 39.918 23.1445 39.918 23.2031ZM29.5859 22.1875C29.5859 21.5039 29.7422 20.4688 30.0352 19.082C30.3477 17.6953 30.8359 16.4453 31.5 15.3711C32.1641 14.2773 33.0234 13.75 34.0781 13.7891C34.7617 13.8477 35.3281 14.1406 35.8164 14.707C36.3047 15.2734 36.4023 16.1133 36.1094 17.2266C35.0352 20.7617 29.5469 22.168 29.5859 22.1875ZM42.75 2.71484C42.2617 4.19922 41.6953 7.40234 41.0898 12.3242C40.4844 17.2266 40.25 21.3086 40.3867 24.5312C40.543 27.7539 41.5195 29.6289 43.3359 30.1367C46.0312 30.5859 50.2891 26.1133 50.3672 25.8594C50.3672 25.8594 50.3477 25.8789 50.2891 25.8984C50.0352 25.9961 49.4883 26.1914 48.668 26.4648C47.8477 26.7188 46.9883 26.9141 46.0703 27.0312C45.1719 27.1289 44.4883 27.0117 44 26.6406C43.4727 26.0547 43.3945 24.7266 43.7461 22.6758C44.0977 20.625 44.5469 18.3594 45.0742 15.8789C45.6211 13.3984 46.3242 10.4688 47.1641 7.12891L48.4531 2.08984C46.9492 1.15234 45.5625 1.07422 44.4883 1.67969C43.4141 2.28516 42.75 2.71484 42.75 2.71484ZM52.1641 2.71484C51.6758 4.19922 51.1094 7.40234 50.5039 12.3242C49.8984 17.2266 49.6641 21.3086 49.8008 24.5312C49.957 27.7539 50.9336 29.6289 52.75 30.1367C55.4453 30.5859 59.7031 26.1133 59.7812 25.8594C59.7812 25.8594 59.7617 25.8789 59.7031 25.8984C59.4492 25.9961 58.9023 26.1914 58.082 26.4648C57.2617 26.7188 56.4023 26.9141 55.4844 27.0312C54.5859 27.1289 53.9023 27.0117 53.4141 26.6406C52.8867 26.0547 52.8086 24.7266 53.1602 22.6758C53.5117 20.625 53.9609 18.3594 54.4883 15.8789C55.0352 13.3984 55.7383 10.4688 56.5781 7.12891L57.8672 2.08984C56.3633 1.15234 54.9766 1.07422 53.9023 1.67969C52.8281 2.28516 52.1641 2.71484 52.1641 2.71484ZM76.4414 26.7578C76.6172 26.4648 76.793 25.9766 77.0078 25.293C77.2227 24.6094 77.3594 23.9648 77.4375 23.3398C77.5352 22.6953 77.457 22.3242 77.2422 22.1875C77.0859 22.1289 76.8125 22.5391 76.4805 23.2227C76.1094 23.9453 75.6211 24.7266 75.0156 25.5273C74.4102 26.3281 73.6875 26.7188 72.8086 26.7188C72.3789 26.7188 72.0859 26.5039 71.9297 26.0742C71.793 25.625 71.7148 25.1172 71.7148 24.5508C71.832 22.2656 72.2031 20.0586 72.8086 17.9297C73.2969 16.0938 73.5898 14.4531 73.668 13.0078C73.6875 11.8359 71.7734 9.04297 70.3672 9.64844C69.957 9.86328 69.7812 10.332 69.6055 11.0156C69.5078 11.3672 69.3906 11.7578 69.2148 12.168C69.2344 11.875 69.1172 11.6211 68.8828 11.4062C68.6289 11.1914 68.3555 10.9961 68.043 10.8594C67.7109 10.7031 67.3984 10.5859 67.0859 10.5273C66.7734 10.4688 66.5391 10.4492 66.3633 10.4492C65.1914 10.4492 64.0977 10.8203 63.0625 11.543C62.0273 12.2656 61.1094 13.2227 60.3086 14.4141C59.5078 15.6055 58.8633 16.9727 58.4141 18.5156C57.9453 20.0586 57.6914 21.6211 57.6719 23.1836C57.6719 23.9453 57.7305 24.7461 57.8281 25.5664C57.9258 26.3672 58.1602 27.1094 58.4922 27.7734C58.8242 28.418 59.2539 28.9453 59.8203 29.3555C60.3867 29.7656 61.1289 29.9609 62.0469 29.9609C63.1211 29.9609 64.0586 29.7852 64.8203 29.4141C65.582 29.0039 66.2266 28.5742 66.7148 28.0859C67.2031 27.5977 67.5547 27.0898 67.7891 26.6016C68.0039 26.1133 68.1406 25.7812 68.1992 25.5664C68.1992 25.625 68.1992 25.7031 68.1797 25.7617C68.1602 25.7812 68.1602 25.8203 68.1602 25.8594C68.1406 25.957 68.1406 26.0547 68.1406 26.1914C68.1211 26.582 68.1602 26.9727 68.2578 27.3828C68.3555 27.793 68.5312 28.1836 68.7852 28.5352C69.0391 28.9062 69.3711 29.1992 69.8203 29.4141C70.2695 29.6289 70.8359 29.7266 71.5195 29.7266C72.7109 29.7266 73.707 29.4336 74.5078 28.8672C75.3086 28.2812 75.9531 27.5781 76.4414 26.7578ZM64 26.4258C63.2383 26.3477 62.8477 25.6836 62.7891 24.4531C62.7305 23.2031 62.9258 21.7383 63.375 20.0391C63.7852 18.4961 64.3125 17.1289 64.918 15.9766C65.543 14.8047 66.168 14.2188 66.7734 14.2188C67.457 14.2188 67.8477 14.707 67.9648 15.7031C68.082 16.6992 68.082 17.7344 67.9453 18.8086C67.8086 19.8828 67.6914 20.6641 67.5742 21.1133C67.1445 22.7734 65.9531 26.4648 64 26.4258ZM81.8906 9.80469C78.5508 9.80469 76.4609 11.3477 75.6211 14.4531C75.3477 16.8164 76.1875 18.7695 78.1406 20.293C78.8242 20.8594 79.5469 21.3867 80.2891 21.875C80.6797 22.1289 81.0703 22.4023 81.4414 22.6562C82.0664 23.1055 82.9648 23.7695 83.1406 24.4922C83.2188 25.1367 82.7305 25.7227 82.2617 26.1719C82.0078 26.4258 81.6562 26.6602 81.2266 26.875C80.7969 27.0898 80.3867 27.1289 80.0156 27.0117C79.4102 26.7773 79.332 25.9766 79.332 25.4297C79.332 24.6289 78.6484 24.1016 77.8867 23.7891C77.7109 23.7109 77.4961 23.6328 77.2812 23.5742C76.9883 23.4766 76.7344 23.3789 76.5195 23.2617L76.0508 23.0273L75.8164 23.4766C75.4844 24.043 75.3281 24.6484 75.3281 25.2734C75.3281 26.543 75.8164 27.5977 76.7734 28.418C77.75 29.2188 78.9023 29.7266 80.2305 29.9219C81.9883 30.1758 83.6289 29.9023 85.1328 29.1211C86.6367 28.3398 87.5742 27.1094 87.9258 25.4102C88.1992 24.0625 87.9062 22.832 87.0664 21.7383C86.3438 20.957 85.4844 20.2734 84.4688 19.707C83.6289 19.2188 82.8477 18.6523 82.1641 18.0078C81.5977 17.4219 81.1875 16.7188 80.9727 15.8984C80.7578 15.0781 80.9531 14.3555 81.5391 13.7109C81.9492 13.3203 82.457 13.125 83.043 13.125C83.5703 13.1055 84.1172 13.1836 84.6445 13.3594C85.1914 13.5352 85.5234 13.8867 85.6602 14.4141C85.7969 15.1367 85.3477 15.7812 84.7031 16.1719L84.4297 16.3086L84.4883 16.6016C84.5273 16.9336 84.7227 17.2266 85.0938 17.5C85.4648 17.7539 85.7969 17.9297 86.1289 18.0273C87.457 18.3984 88.4336 17.7148 88.9805 16.6211C89.2734 16.0156 89.3516 15.4102 89.2148 14.7656C88.9219 13.0859 88.043 11.8359 86.5781 11.0352C85.1133 10.2148 83.5508 9.80469 81.8906 9.80469Z" fill="#DC4DB4"/>
</svg>
