<svg width="22" height="23" viewBox="0 0 22 23" fill="none" xmlns="http://www.w3.org/2000/svg">
<path d="M11.0049 5.88477C7.89941 5.88477 5.39453 8.38965 5.39453 11.4951C5.39453 14.6006 7.89941 17.1055 11.0049 17.1055C14.1104 17.1055 16.6152 14.6006 16.6152 11.4951C16.6152 8.38965 14.1104 5.88477 11.0049 5.88477ZM11.0049 15.1426C8.99805 15.1426 7.35742 13.5068 7.35742 11.4951C7.35742 9.4834 8.99316 7.84766 11.0049 7.84766C13.0166 7.84766 14.6523 9.4834 14.6523 11.4951C14.6523 13.5068 13.0117 15.1426 11.0049 15.1426ZM18.1533 5.65527C18.1533 6.38281 17.5674 6.96387 16.8447 6.96387C16.1172 6.96387 15.5361 6.37793 15.5361 5.65527C15.5361 4.93262 16.1221 4.34668 16.8447 4.34668C17.5674 4.34668 18.1533 4.93262 18.1533 5.65527ZM21.8691 6.9834C21.7861 5.23047 21.3857 3.67773 20.1016 2.39844C18.8223 1.11914 17.2695 0.71875 15.5166 0.630859C13.71 0.52832 8.29492 0.52832 6.48828 0.630859C4.74023 0.713867 3.1875 1.11426 1.90332 2.39355C0.619141 3.67285 0.223633 5.22559 0.135742 6.97852C0.0332031 8.78516 0.0332031 14.2002 0.135742 16.0068C0.21875 17.7598 0.619141 19.3125 1.90332 20.5918C3.1875 21.8711 4.73535 22.2715 6.48828 22.3594C8.29492 22.4619 13.71 22.4619 15.5166 22.3594C17.2695 22.2764 18.8223 21.876 20.1016 20.5918C21.3809 19.3125 21.7812 17.7598 21.8691 16.0068C21.9717 14.2002 21.9717 8.79004 21.8691 6.9834ZM19.5352 17.9453C19.1543 18.9023 18.417 19.6396 17.4551 20.0254C16.0146 20.5967 12.5967 20.4648 11.0049 20.4648C9.41309 20.4648 5.99023 20.5918 4.55469 20.0254C3.59766 19.6445 2.86035 18.9072 2.47461 17.9453C1.90332 16.5049 2.03516 13.0869 2.03516 11.4951C2.03516 9.90332 1.9082 6.48047 2.47461 5.04492C2.85547 4.08789 3.59277 3.35059 4.55469 2.96484C5.99512 2.39355 9.41309 2.52539 11.0049 2.52539C12.5967 2.52539 16.0195 2.39844 17.4551 2.96484C18.4121 3.3457 19.1494 4.08301 19.5352 5.04492C20.1064 6.48535 19.9746 9.90332 19.9746 11.4951C19.9746 13.0869 20.1064 16.5098 19.5352 17.9453Z" fill="#020202"/>
</svg>
