<svg width="22" height="21" viewBox="0 0 22 21" fill="none" xmlns="http://www.w3.org/2000/svg">
<path d="M4.95898 20.875H0.423828V6.27051H4.95898V20.875ZM2.68896 4.27832C1.23877 4.27832 0.0625 3.07715 0.0625 1.62695C0.0625 0.930371 0.339216 0.26232 0.831774 -0.230238C1.32433 -0.722796 1.99238 -0.999512 2.68896 -0.999512C3.38555 -0.999512 4.0536 -0.722796 4.54616 -0.230238C5.03871 0.26232 5.31543 0.930371 5.31543 1.62695C5.31543 3.07715 4.13867 4.27832 2.68896 4.27832ZM21.9326 20.875H17.4072V13.7656C17.4072 12.0713 17.373 9.89844 15.0493 9.89844C12.6914 9.89844 12.3301 11.7393 12.3301 13.6436V20.875H7.79981V6.27051H12.1494V8.2627H12.2129C12.8184 7.11523 14.2974 5.9043 16.5039 5.9043C21.0938 5.9043 21.9375 8.92676 21.9375 12.8525V20.875H21.9326Z" fill="#020202"/>
</svg>
