<svg width="41" height="40" viewBox="0 0 41 40" fill="none" xmlns="http://www.w3.org/2000/svg">
<path d="M6.75 0C3.31789 0 0.5 2.81789 0.5 6.25V33.75C0.5 37.1821 3.31789 40 6.75 40H34.25C37.6821 40 40.5 37.1821 40.5 33.75V6.25C40.5 2.81789 37.6821 0 34.25 0H6.75ZM6.75 3.33333H34.25C35.8812 3.33333 37.1667 4.61878 37.1667 6.25V33.75C37.1667 34.3016 37.0109 34.8079 36.7533 35.2441C34.8664 32.0489 31.9697 29.9506 30.5 29.0397V20C30.5 13.0217 26.4817 8.33333 20.5 8.33333C14.5233 8.33333 10.5067 12.567 10.5 18.8737V18.8802V18.89V30.3678C8.46477 31.5107 6.16141 33.2111 4.47786 35.5762C4.079 35.0779 3.83333 34.4497 3.83333 33.75V6.25C3.83333 4.61878 5.11878 3.33333 6.75 3.33333ZM17.6973 13.3561C21.8439 13.3561 22.1667 17.9374 22.1667 19.3424V36.6667H7.85026C10.9324 33.1104 15.9041 31.6204 15.9622 31.6048L17.1667 31.2533V27.3438L16.2975 26.8685C14.7759 26.0385 13.8333 24.285 13.8333 22.2917V18.89V18.8867C13.835 16.8317 14.6489 13.3561 17.6973 13.3561Z" fill="#DC4DB4"/>
</svg>
