<svg width="247" height="82" viewBox="0 0 247 82" fill="none" xmlns="http://www.w3.org/2000/svg">
<path d="M2.22266 28.2207C2.22266 28.2207 2.07617 29.8809 1.73438 33.1523C1.44141 36.4238 1.14844 40.4766 0.855469 45.2617C0.611328 49.998 0.464844 54.7832 0.464844 59.5684C0.513672 64.3047 0.806641 68.3574 1.39258 71.6289C2.02734 74.9004 3.10156 76.5605 4.61523 76.5605C4.56641 76.5605 8.91211 77.1953 10.3281 75.291C10.8164 74.4609 11.6465 71.873 12.8672 67.5273C14.0879 63.1816 15.5527 58.543 17.2129 53.6602C18.873 48.7773 20.582 45.1641 22.291 42.8203L22.1445 44.8711C22.0957 45.5547 22.0957 46.2383 22.0469 46.9219C21.7051 50.291 21.4609 54.0508 21.3633 58.2012C21.3145 62.3516 21.6562 66.1602 22.3887 69.627C22.9258 74.0703 24.0977 76.3164 25.9043 76.3164C25.8066 76.3164 30.2012 76.9023 31.5684 74.998C32.1055 74.1191 32.9844 71.4336 34.2051 66.9414C35.4746 62.498 36.9395 57.8105 38.5996 52.9277C40.3086 47.9961 42.0176 44.4805 43.7266 42.2832C43.7266 42.4297 43.7266 42.5273 43.6777 42.6738C43.1895 46.3848 42.8477 51.3164 42.6035 57.4199C42.4082 63.5234 43.1406 68.6992 44.8496 72.8496C46.5586 77 49.9766 77.9277 55.1523 75.6816C57.9355 74.168 60.4258 71.6777 62.623 68.2109C64.8203 64.7441 66.8223 61.2773 68.5312 57.8105C69.3125 56.248 70.0449 54.832 70.7773 53.5625C69.6055 54.4902 68.2871 55.5645 66.8223 56.834C63.0625 59.959 59.0098 63.377 55.8848 65.1348C54.0293 66.1113 52.9062 65.8184 52.4668 64.2559C52.0762 62.6934 52.125 60.3984 52.6133 57.3223C53.1016 54.2461 53.7363 50.9258 54.5664 47.3125C55.3965 43.4551 56.0801 39.8906 56.5684 36.6191C57.1055 33.3477 57.0078 31.0039 56.373 29.6367C55.0547 27.8301 52.9551 27.4883 50.123 28.709C45.8262 30.7109 42.3105 34.4707 39.5273 40.0371C36.793 45.6035 34.498 51.2676 32.6914 56.9805C31.7637 59.6172 30.8848 61.9609 30.0547 64.0605C30.6406 60.6426 31.2266 56.4434 31.7637 51.4629C32.3496 46.4824 32.7891 41.8438 33.082 37.5469L33.2285 35.6426C33.5215 33.9336 33.4727 32.5664 33.0332 31.5898C32.5938 30.6133 31.2266 30.125 28.834 30.1738C26.5391 30.1738 25.3184 30.9551 23.0234 33.2988C20.4355 36.375 18.1895 40.0371 16.334 44.3828C14.4785 48.7285 12.8184 52.9766 11.4023 57.1758C10.4746 59.8613 9.5957 62.2539 8.76562 64.3535L14.5273 30.4668C14.5273 30.5645 10.0352 26.3164 2.22266 28.2207ZM101.979 60.0078C89.1367 70.3594 85.2305 70.3105 81.2266 69.8223C75.416 69.0898 76.2949 61.7656 76.2461 61.7656C80.9824 62.4004 85.1816 61.668 88.8438 59.6172C92.5059 57.5176 95.2891 55.0273 97.0957 52.1465C100.855 45.8477 101.49 40.1836 99.0977 35.1055C96.7051 29.9785 91.1387 27.8789 82.4961 28.709C76.0996 30.0273 70.9727 34.1777 67.1152 41.0625C63.2578 47.9473 61.6465 54.9785 62.2812 62.1562C62.9648 69.334 66.9199 73.9727 74.0977 76.1211C96.168 81.4922 101.979 59.8613 101.979 60.0078ZM76.1484 57.4688C76.1484 55.7598 76.5391 53.1719 77.2715 49.7051C78.0527 46.2383 79.2734 43.1133 80.9336 40.4277C82.5938 37.6934 84.7422 36.375 87.3789 36.4727C89.0879 36.6191 90.5039 37.3516 91.7246 38.7676C92.9453 40.1836 93.1895 42.2832 92.457 45.0664C89.7715 53.9043 76.0508 57.4199 76.1484 57.4688ZM109.059 8.78711C107.838 12.498 106.422 20.5059 104.908 32.8105C103.395 45.0664 102.809 55.2715 103.15 63.3281C103.541 71.3848 105.982 76.0723 110.523 77.3418C117.262 78.4648 127.906 67.2832 128.102 66.6484C128.102 66.6484 128.053 66.6973 127.906 66.7461C127.271 66.9902 125.904 67.4785 123.854 68.1621C121.803 68.7969 119.654 69.2852 117.359 69.5781C115.113 69.8223 113.404 69.5293 112.184 68.6016C110.865 67.1367 110.67 63.8164 111.549 58.6895C112.428 53.5625 113.551 47.8984 114.869 41.6973C116.236 35.4961 117.994 28.1719 120.094 19.8223L123.316 7.22461C119.557 4.88086 116.09 4.68555 113.404 6.19922C110.719 7.71289 109.059 8.78711 109.059 8.78711ZM128.443 13.4746C128.346 13.9629 128.248 14.5 128.15 15.1348C126.881 21.5801 125.66 30.8086 124.537 42.7715C123.414 54.7344 124.195 64.6953 126.881 72.6543C127.711 74.7051 138.6 78.9043 138.941 75.877C139.186 73.2891 139.82 69.3828 140.943 64.0605C142.066 58.7383 143.824 53.9531 146.314 49.7051C148.805 45.457 152.271 43.6016 156.666 44.1875C161.305 45.1152 157.691 56.1992 153.932 64.9395C152.662 67.918 151.539 70.4082 150.514 72.459C149.488 74.4609 149 75.4863 149 75.4863C149 75.4863 149.928 75.7305 151.783 76.1699C153.639 76.6094 156.129 76.707 159.254 76.5117C162.379 76.3164 165.895 75.3398 169.752 73.6309C173.609 71.9219 177.613 68.9434 181.764 64.7441C181.861 64.7441 162.965 72.6543 162.037 67.9668C161.988 66.8926 162.574 64.8906 163.795 62.0098C165.113 58.9824 166.236 55.5645 167.164 51.707C168.141 47.8496 168.043 44.2363 166.871 40.8184C165.748 37.4004 162.672 34.7637 157.643 32.957C153.932 31.9316 150.514 32.8105 147.389 35.4961C144.264 38.1816 141.676 41.5508 139.576 45.7012C137.477 49.8027 136.207 53.4648 135.67 56.7363C135.523 57.3711 135.816 55.9551 136.5 52.4883C137.184 49.0215 138.062 44.4805 139.137 38.8652C140.26 33.25 141.334 27.5371 142.457 21.7754C143.58 15.9648 144.557 11.082 145.338 7.0293C146.119 2.97656 146.51 0.974609 146.51 0.974609C144.996 1.70703 143.336 2.39062 141.529 3.12305C138.502 4.19727 135.719 5.51562 133.131 7.07812C130.543 8.5918 128.98 10.7402 128.443 13.4746ZM189.723 28.1719C183.814 27.6348 178.932 29.9297 175.416 32.8105C173.707 34.2266 172.34 35.4961 171.412 36.668C170.484 37.791 169.996 38.377 169.996 38.377C177.076 36.375 184.01 36.1309 190.748 37.6445C197.486 39.1094 200.611 44.2363 200.074 52.9766C199.488 57.4199 198.219 61.0332 196.266 63.8652C194.312 66.6973 192.115 68.0645 189.723 68.0156C187.135 67.625 185.279 65.6719 184.156 62.1074C183.033 58.543 182.789 54.6367 183.424 50.3887C184.059 46.1406 185.719 42.7715 188.404 40.2812C186.5 38.7188 181.666 38.5234 173.951 39.7441C169.752 46.5312 168.678 54.4414 170.729 63.4746C172.828 72.5078 177.955 77 186.158 77C191.188 77 195.729 74.5098 199.879 69.5293C204.029 64.5488 206.471 58.5918 207.105 51.6094C207.447 44.7246 205.934 39.0605 202.467 34.7148C199 30.3691 194.752 28.1719 189.723 28.1719ZM210.23 33.2012C210.084 35.1055 209.938 38.4258 209.693 43.1133C209.449 47.752 209.303 52.7324 209.254 58.0547C209.205 63.3281 209.4 67.8203 209.742 71.5801C210.084 75.291 210.816 77.1953 211.842 77.2441L217.945 74.4609C217.75 71.1895 218.189 66.5996 219.264 60.6914C220.338 54.7832 221.705 49.4121 223.365 44.5293C241.285 28.709 237.428 49.7539 236.988 51.4141C237.135 52.1953 240.016 48.6309 245.631 40.7695C246.363 39.6953 246.656 38.2305 246.461 36.375C246.314 34.5195 245.484 32.8105 244.02 31.248C242.701 29.8809 240.65 28.9531 237.867 28.416C235.182 28.123 232.643 28.8066 230.25 30.4668C227.857 32.127 225.758 34.1289 223.951 36.4727C224.586 31.3945 225.074 28.0742 225.074 28.0742C216.725 25.0957 210.23 33.2988 210.23 33.2012Z" fill="#020202"/>
</svg>
