<svg width="25" height="25" viewBox="0 0 25 25" fill="none" xmlns="http://www.w3.org/2000/svg">
<path d="M21.4422 12.8999C21.2849 14.6021 20.646 16.2243 19.6004 17.5767C18.5548 18.929 17.1457 19.9557 15.5379 20.5364C13.9301 21.1172 12.1901 21.228 10.5217 20.856C8.85318 20.4839 7.32516 19.6444 6.11639 18.4357C4.90762 17.2269 4.0681 15.6989 3.69607 14.0304C3.32404 12.3619 3.43488 10.622 4.01562 9.01418C4.59637 7.40639 5.62299 5.99724 6.97537 4.95163C8.32776 3.90602 9.94996 3.26718 11.6522 3.10988C10.6556 4.45815 10.176 6.11933 10.3007 7.79129C10.4254 9.46326 11.146 11.0349 12.3316 12.2205C13.5171 13.406 15.0888 14.1267 16.7607 14.2513C18.4327 14.376 20.0939 13.8965 21.4422 12.8999V12.8999Z" fill="white"/>
</svg>
