<svg width="25" height="25" viewBox="0 0 25 25" fill="none" xmlns="http://www.w3.org/2000/svg">
<g clip-path="url(#clip0_76_45)">
<path d="M12.8318 17.2239C15.5932 17.2239 17.8318 14.9854 17.8318 12.2239C17.8318 9.46251 15.5932 7.22394 12.8318 7.22394C10.0704 7.22394 7.83179 9.46251 7.83179 12.2239C7.83179 14.9854 10.0704 17.2239 12.8318 17.2239Z" fill="white" stroke="white" stroke-width="2" stroke-linecap="round" stroke-linejoin="round"/>
<path d="M12.8318 1.22394V3.22394" stroke="white" stroke-width="2" stroke-linecap="round" stroke-linejoin="round"/>
<path d="M12.8318 21.2239V23.2239" stroke="white" stroke-width="2" stroke-linecap="round" stroke-linejoin="round"/>
<path d="M5.05176 4.44394L6.47176 5.86394" stroke="white" stroke-width="2" stroke-linecap="round" stroke-linejoin="round"/>
<path d="M19.1918 18.5839L20.6118 20.0039" stroke="white" stroke-width="2" stroke-linecap="round" stroke-linejoin="round"/>
<path d="M1.83179 12.2239H3.83179" stroke="white" stroke-width="2" stroke-linecap="round" stroke-linejoin="round"/>
<path d="M21.8318 12.2239H23.8318" stroke="white" stroke-width="2" stroke-linecap="round" stroke-linejoin="round"/>
<path d="M5.05176 20.0039L6.47176 18.5839" stroke="white" stroke-width="2" stroke-linecap="round" stroke-linejoin="round"/>
<path d="M19.1918 5.86394L20.6118 4.44394" stroke="white" stroke-width="2" stroke-linecap="round" stroke-linejoin="round"/>
</g>
<defs>
<clipPath id="clip0_76_45">
<rect width="24" height="24" fill="white" transform="translate(0.831787 0.223938)"/>
</clipPath>
</defs>
</svg>
