<svg width="26" height="21" viewBox="0 0 26 21" fill="none" xmlns="http://www.w3.org/2000/svg">
<path d="M22.9302 5.40791C22.946 5.62998 22.946 5.8521 22.946 6.07417C22.946 12.8476 17.7906 20.6522 8.36802 20.6522C5.46509 20.6522 2.76841 19.8114 0.5 18.3521C0.912451 18.3997 1.30898 18.4155 1.7373 18.4155C4.13257 18.4155 6.33755 17.6065 8.09834 16.2265C5.8458 16.1789 3.95811 14.7036 3.30771 12.6731C3.625 12.7207 3.94224 12.7524 4.27539 12.7524C4.7354 12.7524 5.19546 12.689 5.62373 12.578C3.27603 12.102 1.51519 10.0399 1.51519 7.54941V7.48599C2.19727 7.8667 2.99048 8.10464 3.83115 8.13633C2.45107 7.21626 1.54692 5.64585 1.54692 3.86919C1.54692 2.91743 1.80068 2.04497 2.24487 1.28354C4.76709 4.39268 8.55835 6.4231 12.8096 6.64522C12.7303 6.2645 12.6827 5.86797 12.6827 5.47139C12.6827 2.64775 14.9669 0.347656 17.8064 0.347656C19.2816 0.347656 20.6141 0.966309 21.55 1.96567C22.708 1.7436 23.8184 1.31528 24.802 0.728369C24.4212 1.91812 23.6122 2.91748 22.5494 3.55195C23.5805 3.44097 24.5799 3.15537 25.4999 2.75884C24.802 3.77402 23.9295 4.67817 22.9302 5.40791Z" fill="#020202"/>
</svg>
